HIERARCHY
ROOT Hips
{
	OFFSET 0.000000 0.000000 0.000000 
	CHANNELS 6 Xposition Yposition Zposition Zrotation Yrotation Xrotation
	JOINT LeftUpLeg
	{
		OFFSET 1.363060 -1.794630 0.839290 
		CHANNELS 3 Zrotation Yrotation Xrotation
		JOINT LeftLeg
		{
			OFFSET 2.448110 -6.726130 0.000000 
			CHANNELS 3 Zrotation Yrotation Xrotation
			JOINT LeftFoot
			{
				OFFSET 2.562200 -7.039590 0.000000 
				CHANNELS 3 Zrotation Yrotation Xrotation
				JOINT LeftToeBase
				{
					OFFSET 0.157640 -0.433110 2.322550 
					CHANNELS 3 Zrotation Yrotation Xrotation
					End Site
					{
						OFFSET 0.000000 0.000000 0.000000 
					}
				}
			}
		}
	}
	JOINT RightUpLeg
	{
		OFFSET -1.305520 -1.794630 0.839290 
		CHANNELS 3 Zrotation Yrotation Xrotation
		JOINT RightLeg
		{
			OFFSET -2.542530 -6.985550 0.000000 
			CHANNELS 3 Zrotation Yrotation Xrotation
			JOINT RightFoot
			{
				OFFSET -2.568260 -7.056230 0.000000 
				CHANNELS 3 Zrotation Yrotation Xrotation
				JOINT RightToeBase
				{
					OFFSET -0.164730 -0.452590 2.363150 
					CHANNELS 3 Zrotation Yrotation Xrotation
					End Site
					{
						OFFSET 0.000000 0.000000 0.000000 
					}
				}
			}
		}
	}
	JOINT Spine
	{
		OFFSET 0.028270 2.035590 -0.193380 
		CHANNELS 3 Zrotation Yrotation Xrotation
		JOINT Spine1
		{
			OFFSET 0.056720 2.048850 -0.042750 
			CHANNELS 3 Zrotation Yrotation Xrotation
			JOINT Neck1
			{
				OFFSET -0.054170 1.746240 0.172020 
				CHANNELS 3 Zrotation Yrotation Xrotation
				JOINT Head
				{
					OFFSET 0.104070 1.761360 -0.123970 
					CHANNELS 3 Zrotation Yrotation Xrotation
					End Site
					{
						OFFSET 0.000000 0.000000 0.000000 
					}
				}
			}
			JOINT LeftArm
			{
				OFFSET 3.362410 1.200890 -0.311210 
				CHANNELS 3 Zrotation Yrotation Xrotation
				JOINT LeftForeArm
				{
					OFFSET 4.983000 -0.000000 -0.000000 
					CHANNELS 3 Zrotation Yrotation Xrotation
					JOINT LeftHand
					{
						OFFSET 3.483560 -0.000000 -0.000000 
						CHANNELS 3 Zrotation Yrotation Xrotation
						JOINT LeftHandIndex1
						{
							OFFSET 0.715260 -0.000000 -0.000000 
							CHANNELS 3 Zrotation Yrotation Xrotation
							End Site
							{
								OFFSET 0.000000 0.000000 0.000000 
							}
						}
					}
				}
			}
			JOINT RightArm
			{
				OFFSET -3.136600 1.374050 -0.404650 
				CHANNELS 3 Zrotation Yrotation Xrotation
				JOINT RightForeArm
				{
					OFFSET -5.241900 -0.000000 -0.000000 
					CHANNELS 3 Zrotation Yrotation Xrotation
					JOINT RightHand
					{
						OFFSET -3.444170 -0.000000 -0.000000 
						CHANNELS 3 Zrotation Yrotation Xrotation
						JOINT RightHandIndex1
						{
							OFFSET -0.622530 -0.000000 -0.000000 
							CHANNELS 3 Zrotation Yrotation Xrotation
							End Site
							{
								OFFSET 0.000000 0.000000 0.000000 
							}
						}
					}
				}
			}
		}
	}
}
MOTION
Frames: 15
Frame Time: 0.041667
0.634553 18.362223 9.700990 -9.531388 -1.215121 14.697165 -17.335201 -44.331280 16.820860 -3.766584 -2.236004 -2.944814 -14.754975 44.871915 -29.774741 0.360900 3.859500 10.681700 22.838341 26.698541 -2.242885 3.489268 -0.997391 3.330142 7.190972 -23.358114 0.053600 -0.013600 0.752400 -2.067700 16.594140 6.771235 -20.599856 -10.559112 -0.274745 -11.623364 14.173975 -9.383186 13.807916 1.835100 -3.663300 4.844100 -82.963348 14.269749 9.406856 14.171615 -16.895852 -2.842683 -0.923035 0.434826 13.146863 -7.125000 0.000000 0.000000 80.178979 -16.826838 0.491540 -16.556330 23.033574 -4.506567 -0.480105 2.776953 19.025622 7.125000 0.000000 0.000000 
0.640344 18.349797 9.699621 -11.197821 -0.588322 14.180243 -15.730251 -43.507836 16.747573 -3.740639 -2.355460 -3.159407 -15.052528 44.897969 -28.164926 0.249700 3.215600 8.879700 24.708999 26.233552 -1.785719 3.482678 -0.998640 3.368980 6.989144 -22.974976 -0.047989 -0.007100 0.543600 -1.493700 20.367152 7.667587 -20.003837 -12.569122 -0.514788 -11.854448 15.433080 -9.795890 14.986488 2.209500 -3.745900 5.158200 -83.416721 14.410061 9.489543 14.103442 -16.896179 -2.837196 -0.885636 0.422990 14.084723 -7.125000 0.000000 0.000000 80.379666 -17.038096 0.226835 -16.653919 23.105867 -4.530182 -0.485610 2.770923 18.965334 7.125000 0.000000 0.000000 
0.647610 18.343584 9.698041 -11.944353 -0.286029 13.991055 -14.977541 -43.195150 16.681875 -3.726487 -2.388528 -3.219254 -15.114216 44.825674 -27.543650 0.218100 3.006500 8.296900 25.641174 26.346589 -1.361815 3.489551 -0.957959 3.278190 7.014254 -23.108876 -0.330293 0.000000 0.006400 -0.017700 21.699925 8.208204 -20.175290 -13.639957 -0.570181 -11.908136 18.348890 -10.529587 16.783792 2.995200 -3.842200 5.705600 -83.727703 14.620114 9.760109 14.017720 -16.830240 -2.818701 -0.873774 0.436196 14.608756 -7.125000 0.000000 0.000000 80.489613 -17.360868 -0.146978 -16.718547 23.112630 -4.536483 -0.475041 2.773801 18.844540 7.125000 0.000000 0.000000 
0.648663 18.343689 9.700884 -11.932798 -0.356728 13.978041 -15.144730 -43.355461 16.882815 -3.736783 -2.388433 -3.213050 -15.053216 44.805136 -27.920756 0.243700 3.176700 8.771000 25.787783 27.346489 -0.674168 3.513857 -0.867463 3.041962 7.336837 -23.960793 -0.967620 -0.000500 -0.146000 0.401200 21.946014 8.175513 -20.197800 -13.704152 -0.637421 -11.989521 19.584893 -10.896914 18.288748 3.341400 -3.831700 6.126900 -83.919700 14.721821 9.283053 13.975812 -16.771415 -2.804007 -0.862109 0.472300 15.005246 -7.125000 0.000000 0.000000 80.376234 -17.468058 0.059615 -16.663785 23.030103 -4.502659 -0.447234 2.771787 18.919095 7.125000 0.000000 0.000000 
0.649506 18.343584 9.706149 -11.793760 -0.477868 13.913293 -15.648424 -43.634975 17.346239 -3.759193 -2.411656 -3.235032 -14.991080 44.856792 -28.585489 0.285700 3.437500 9.499300 25.692264 27.864527 -0.237981 3.529782 -0.790843 2.839249 7.518013 -24.441830 -1.199005 -0.000200 0.087200 -0.239500 22.256489 8.139263 -20.066900 -13.662169 -0.674454 -12.011093 19.705610 -10.998009 19.031599 3.401300 -3.818100 6.299700 -84.174696 14.742287 8.829963 13.969927 -16.739118 -2.796856 -0.869862 0.485935 15.246596 -7.125000 0.000000 0.000000 80.067987 -17.439137 0.514530 -16.503536 22.848261 -4.431737 -0.425838 2.774684 18.715970 7.125000 0.000000 0.000000 
0.649084 18.346533 9.728789 -12.458418 -0.116957 14.055490 -14.874960 -43.711400 17.138782 -3.744794 -2.467743 -3.385993 -15.095616 44.932067 -28.334782 0.268700 3.334500 9.211400 26.310760 27.561107 -0.334217 3.533689 -0.727539 2.670026 7.443246 -24.333269 -1.095933 -0.000100 -0.049500 0.136100 23.897400 8.292861 -19.813551 -14.246537 -0.850375 -11.616440 19.647177 -10.968769 19.498867 3.437700 -3.767200 6.442500 -84.567542 14.738248 8.630030 14.019947 -16.768869 -2.808525 -0.908863 0.456743 15.069219 -7.125000 0.000000 0.000000 79.786603 -17.261248 1.243248 -16.292905 22.571008 -4.340822 -0.395273 2.785528 18.125950 7.125000 0.000000 0.000000 
0.644346 18.351271 9.741847 -12.264141 -0.149017 14.213554 -15.156284 -43.934628 17.219411 -3.752512 -2.478663 -3.415755 -15.092229 45.005892 -28.639172 0.278200 3.392500 9.373500 25.990739 27.637867 -0.422688 3.539148 -0.709283 2.596913 7.480771 -24.422160 -1.092943 -0.001700 -0.267800 0.735900 24.166807 8.261719 -19.990217 -14.083498 -0.884861 -11.394860 19.540019 -10.978126 20.215020 3.448300 -3.722100 6.614600 -84.826299 14.825462 8.500713 14.076984 -16.795036 -2.819302 -0.936318 0.429165 14.966239 -7.125000 0.000000 0.000000 79.506626 -17.286319 1.715538 -16.171884 22.436253 -4.296054 -0.378917 2.791677 17.786496 7.125000 0.000000 0.000000 
0.636869 18.359590 9.747954 -11.509401 -0.407475 14.480913 -16.132264 -44.363344 17.413697 -3.779449 -2.457505 -3.337066 -14.955183 45.024196 -29.527330 0.331600 3.701000 10.237000 24.940391 28.082248 -0.588691 3.545518 -0.725067 2.564337 7.624171 -24.731324 -1.176975 -0.002800 -0.341600 0.938700 24.212778 8.135779 -20.499243 -13.519723 -0.907175 -11.172394 19.595854 -10.840002 20.664134 3.544900 -3.633000 6.706200 -85.337958 14.953540 7.941799 14.161239 -16.820651 -2.835497 -0.944296 0.427329 15.037162 -7.125000 0.000000 0.000000 79.054792 -17.437591 2.237540 -16.106222 22.403282 -4.283644 -0.372130 2.786941 17.720858 7.125000 0.000000 0.000000 
0.633289 18.362854 9.748692 -11.101450 -0.539178 14.677487 -16.427603 -44.474618 17.255177 -3.781631 -2.434592 -3.305704 -14.917586 45.033800 -29.724250 0.348400 3.792700 10.494100 24.414137 28.321655 -0.726166 3.547737 -0.734275 2.562070 7.701152 -24.887668 -1.249278 -0.004200 -0.416600 1.144600 23.610852 8.069562 -20.828385 -13.147376 -0.831341 -11.003228 19.431766 -10.748311 20.880676 3.496500 -3.576900 6.737100 -85.332815 14.896203 7.956011 14.193309 -16.826141 -2.842107 -0.957924 0.431273 15.029299 -7.125000 0.000000 0.000000 78.989697 -17.446430 2.120709 -16.058778 22.343824 -4.261523 -0.357376 2.779924 17.896352 7.125000 0.000000 0.000000 
0.633710 18.362117 9.746691 -11.096206 -0.490111 14.711512 -16.335963 -44.435494 17.096882 -3.775542 -2.425261 -3.288277 -14.944775 45.033159 -29.543835 0.337900 3.735400 10.333300 24.374368 28.334966 -0.776467 3.549340 -0.732491 2.553286 7.723729 -24.942226 -1.299419 -0.004500 -0.431500 1.185600 23.690523 8.052405 -20.731942 -13.142500 -0.844142 -11.010306 19.465519 -10.687383 21.033189 3.505300 -3.525600 6.781000 -85.391173 14.821577 7.916380 14.226637 -16.857314 -2.854563 -0.964415 0.437913 15.012157 -7.125000 0.000000 0.000000 78.944140 -17.417245 2.050000 -15.989897 22.255657 -4.224706 -0.339524 2.765332 18.245914 7.125000 0.000000 0.000000 
0.634026 18.362433 9.744690 -11.044484 -0.456590 14.721650 -16.437193 -44.583580 17.162508 -3.778422 -2.414367 -3.256754 -14.911610 45.020536 -29.719770 0.346200 3.780500 10.459800 24.293176 28.378041 -0.783105 3.552513 -0.719851 2.518725 7.751487 -25.006008 -1.350795 -0.006500 -0.522000 1.434500 23.671670 8.022448 -20.637640 -13.110930 -0.845833 -11.042949 19.509972 -10.636331 21.051611 3.512600 -3.490900 6.792300 -85.428426 14.789624 7.929621 14.259959 -16.895621 -2.869638 -0.965641 0.452844 14.921378 -7.125000 0.000000 0.000000 78.886618 -17.411563 2.129546 -16.012235 22.292798 -4.237082 -0.345463 2.766459 18.137465 7.125000 0.000000 0.000000 
0.634131 18.362854 9.743005 -10.988769 -0.429382 14.728401 -16.530163 -44.696329 17.218128 -3.779950 -2.408286 -3.241032 -14.901669 45.032357 -29.830411 0.350600 3.804500 10.527200 24.220518 28.425744 -0.780094 3.554976 -0.709557 2.491590 7.773613 -25.054604 -1.396306 -0.008600 -0.597800 1.642700 23.569659 8.008749 -20.588490 -13.085570 -0.831859 -11.076304 19.539513 -10.582300 20.916870 3.514500 -3.470800 6.764700 -85.445319 14.800308 8.077010 14.311679 -16.963328 -2.894396 -0.966556 0.466216 14.778621 -7.125000 0.000000 0.000000 78.850052 -17.425843 2.292014 -16.128284 22.449574 -4.296799 -0.366516 2.781299 17.595950 7.125000 0.000000 0.000000 
0.633500 18.363381 9.739741 -10.971738 -0.386403 14.755610 -16.435392 -44.667015 17.071602 -3.774089 -2.403275 -3.236725 -14.925371 45.030660 -29.668055 0.342400 3.760300 10.403200 24.193180 28.459589 -0.813992 3.555094 -0.715006 2.497658 7.800752 -25.127971 -1.419351 -0.006900 -0.535700 1.472100 23.533183 8.011269 -20.572293 -13.080889 -0.827421 -11.124291 19.640063 -10.551378 20.800910 3.540100 -3.456100 6.752500 -85.469490 14.828181 8.350637 14.370227 -17.040248 -2.922749 -0.970115 0.478061 14.521470 -7.125000 0.000000 0.000000 78.828552 -17.427685 2.376519 -16.183740 22.526406 -4.325458 -0.377651 2.788041 17.317492 7.125000 0.000000 0.000000 
0.632657 18.364118 9.733633 -11.009317 -0.310721 14.784845 -16.178531 -44.578421 16.790496 -3.764357 -2.394894 -3.225109 -14.921791 44.953563 -29.397713 0.335000 3.719400 10.288600 24.221823 28.569773 -0.834636 3.555726 -0.724031 2.511376 7.845785 -25.247456 -1.524543 -0.007200 -0.546400 1.501500 23.627155 8.009089 -20.515844 -13.108471 -0.847377 -11.203058 19.702146 -10.512685 20.738676 3.559300 -3.434700 6.756100 -85.505813 14.825244 8.612723 14.403518 -17.085547 -2.943912 -0.970109 0.512389 14.244265 -7.125000 0.000000 0.000000 78.825012 -17.405313 2.367323 -16.186596 22.536149 -4.327920 -0.383085 2.788170 17.352024 7.125000 0.000000 0.000000 
0.632868 18.364645 9.729105 -11.057502 -0.226473 14.805886 -15.987310 -44.534615 16.599536 -3.756190 -2.385654 -3.212066 -14.939618 44.925427 -29.178747 0.328800 3.685200 10.192600 24.272382 28.683879 -0.817389 3.558301 -0.721922 2.505151 7.883998 -25.341668 -1.675449 -0.010200 -0.653500 1.795800 23.706299 7.991418 -20.450536 -13.145614 -0.872851 -11.270191 19.715569 -10.470666 20.688675 3.560000 -3.412600 6.755900 -85.541406 14.809716 8.755243 14.426564 -17.117518 -2.959474 -0.964708 0.542438 14.203953 -7.125000 0.000000 0.000000 78.824517 -17.373280 2.345443 -16.172170 22.523431 -4.322902 -0.390919 2.788418 17.426827 7.125000 0.000000 0.000000 
